<?xml version="1.0" encoding="UTF-8"?>
<svg id="_图层_1" data-name="图层_1"
    xmlns="http://www.w3.org/2000/svg" viewBox="0 0 960 960">
    <defs>
        <style>
      .cls-1, .cls-2, .cls-3, .cls-4, .cls-5, .cls-6 {
        stroke: #000;
        stroke-miterlimit: 10;
      }

      .cls-1, .cls-2, .cls-4, .cls-5, .cls-6 {
        fill: none;
      }

      .cls-7, .cls-3 {
        fill: #000;
      }

      .cls-8 {
        fill: #000;
      }

      .cls-2 {
        stroke-width: 1.14px;
      }

      .cls-9 {
        fill: #fff;
      }

      .cls-10 {
        fill: #000;
      }

      .cls-4 {
        stroke-width: 1.14px;
      }

      .cls-5 {
        stroke-width: .99px;
      }

      .cls-11 {
        fill: #000;
      }

      .cls-6 {
        stroke-width: 1.01px;
      }
        </style>
    </defs>
    <g opacity="0.1">
        <polyline class="cls-1" points="855.17 273.69 844.34 204.4 764.77 124.83 694.88 113.42"/>
        <circle class="cls-3" cx="774.5" cy="193.5" r="18"/>
        <path class="cls-8" d="M785.28,262.28L263.18,784.38l-.29-.29c10.08-10.17,16.3-24.16,16.3-39.61,0-31.07-25.19-56.27-56.27-56.27-13.1,0-25.16,4.49-34.72,12L705.71,182.71l79.57,79.57Z"/>
        <path class="cls-1" d="M182.96,704.87c1.65-1.66,3.4-3.22,5.24-4.66,9.56-7.51,21.62-12,34.72-12,31.08,0,56.27,25.2,56.27,56.27,0,15.45-6.22,29.44-16.3,39.61"/>
        <path class="cls-9" d="M855.17,273.69L304.01,824.85l-.6-.58c5.08-5.11,8.22-12.17,8.22-19.95,0-15.64-12.68-28.32-28.33-28.32-7.82,0-14.9,3.17-20.02,8.3h0S785.28,262.28,785.28,262.28l69.89,11.41Z"/>
        <line class="cls-1" x1="705.71" y1="182.71" x2="785.28" y2="262.28"/>
        <g >
            <g>
                <path class="cls-10" d="M694.88,112.42l10.83,69.29L182.69,703.61c5.08-5.13,8.22-12.18,8.22-19.97,0-15.66-12.7-28.36-28.36-28.36-7.88,0-15,3.21-20.14,8.4L694.88,112.42Z"/>
                <polygon class="cls-11" points="705.71 181.71 188.2 699.21 183.25 704.16 182.69 703.61 705.71 181.71"/>
            </g>
            <g>
                <path class="cls-1" d="M694.88,112.42L142.41,663.68c5.14-5.19,12.26-8.4,20.14-8.4,15.66,0,28.36,12.7,28.36,28.36,0,7.79-3.14,14.84-8.22,19.97"/>
                <polyline class="cls-2" points="705.71 181.71 188.2 699.21 183.25 704.16 182.69 703.61"/>
                <line class="cls-1" x1="694.88" y1="112.42" x2="705.71" y2="181.71"/>
            </g>
        </g>
        <path class="cls-10" d="M855.17,273.69L304.01,824.85l-.68-.5.08-.08c5.08-5.11,8.22-12.17,8.22-19.95,0-15.64-12.68-28.32-28.33-28.32-7.82,0-14.9,3.17-20.02,8.3h0S785.28,262.28,785.28,262.28l69.89,11.41Z"/>
        <line class="cls-1" x1="855.17" y1="273.69" x2="304.01" y2="824.85"/>
        <path class="cls-1" d="M303.33,824.35l.08-.08c5.08-5.11,8.22-12.17,8.22-19.95,0-15.64-12.68-28.32-28.33-28.32-7.82,0-14.9,3.17-20.02,8.3"/>
        <line class="cls-1" x1="785.28" y1="262.28" x2="855.17" y2="273.69"/>
        <polyline class="cls-4" points="785.28 262.28 263.27 784.29 263.18 784.38"/>
        <g>
            <line class="cls-6" x1="119.03" y1="874.41" x2="304.01" y2="824.85"/>
            <line class="cls-1" x1="93.49" y1="850.13" x2="143.02" y2="665.28"/>
        </g>
        <g>
            <path class="cls-7" d="M168.5,818c0,4.04-1.41,7.76-3.77,10.72h0l-45.69,45.69-34.53,9.26,8.99-33.54,45.53-45.61c3.11-2.51,7.12-4.02,11.48-4.02,9.94,0,18,7.84,18,17.5Z"/>
            <g>
                <path class="cls-5" d="M139.02,804.52c3.11-2.51,7.12-4.02,11.48-4.02,9.94,0,18,7.84,18,17.5,0,4.04-1.41,7.76-3.77,10.72"/>
                <line class="cls-1" x1="139.02" y1="804.52" x2="93.49" y2="850.13"/>
                <line class="cls-1" x1="164.72" y1="828.72" x2="119.03" y2="874.41"/>
                <line class="cls-6" x1="84.5" y1="883.67" x2="119.03" y2="874.41"/>
                <line class="cls-1" x1="84.5" y1="883.67" x2="93.49" y2="850.13"/>
            </g>
        </g>
    </g>

</svg>
